<svg width="165" height="166" viewBox="0 0 165 166" fill="none" xmlns="http://www.w3.org/2000/svg">
<rect width="165" height="166" rx="82.5" fill="#454545"/>
<path d="M45.5502 108C45.3102 108 45.0942 107.928 44.9022 107.784C44.7582 107.592 44.6862 107.376 44.6862 107.136V58.464C44.6862 58.224 44.7582 58.032 44.9022 57.888C45.0942 57.696 45.3102 57.6 45.5502 57.6H53.9742C54.2142 57.6 54.4062 57.696 54.5502 57.888C54.7422 58.032 54.8382 58.224 54.8382 58.464V98.928C54.8382 99.168 54.9582 99.288 55.1982 99.288H78.7422C78.9822 99.288 79.1742 99.384 79.3182 99.576C79.5102 99.72 79.6062 99.912 79.6062 100.152V107.136C79.6062 107.376 79.5102 107.592 79.3182 107.784C79.1742 107.928 78.9822 108 78.7422 108H45.5502ZM114.329 81.72C114.041 81.864 114.041 82.008 114.329 82.152C118.889 84.504 121.169 88.416 121.169 93.888C121.169 98.544 119.585 102.072 116.417 104.472C113.249 106.824 109.097 108 103.961 108H85.3133C85.0733 108 84.8573 107.928 84.6653 107.784C84.5213 107.592 84.4493 107.376 84.4493 107.136V58.464C84.4493 58.224 84.5213 58.032 84.6653 57.888C84.8573 57.696 85.0733 57.6 85.3133 57.6H103.385C114.761 57.6 120.449 62.208 120.449 71.424C120.449 76.224 118.409 79.656 114.329 81.72ZM94.9613 66.312C94.7213 66.312 94.6013 66.432 94.6013 66.672V77.904C94.6013 78.144 94.7213 78.264 94.9613 78.264H103.385C105.641 78.264 107.393 77.736 108.641 76.68C109.889 75.624 110.513 74.184 110.513 72.36C110.513 70.488 109.889 69.024 108.641 67.968C107.393 66.864 105.641 66.312 103.385 66.312H94.9613ZM103.961 99.216C106.169 99.216 107.897 98.664 109.145 97.56C110.393 96.408 111.017 94.848 111.017 92.88C111.017 90.912 110.393 89.376 109.145 88.272C107.897 87.12 106.145 86.544 103.889 86.544H94.9613C94.7213 86.544 94.6013 86.664 94.6013 86.904V98.856C94.6013 99.096 94.7213 99.216 94.9613 99.216H103.961Z" fill="white"/>
</svg>
